<?xml version="1.0" standalone="no"?>
<!DOCTYPE svg PUBLIC "-//W3C//DTD SVG 20010904//EN"
 "http://www.w3.org/TR/2001/REC-SVG-20010904/DTD/svg10.dtd">
<svg version="1.0" xmlns="http://www.w3.org/2000/svg"
 width="93.000000pt" height="93.000000pt" viewBox="0 0 93.000000 93.000000"
 preserveAspectRatio="xMidYMid meet">
<metadata>
Created by potrace 1.11, written by Peter Selinger 2001-2013
</metadata>
<g transform="translate(0.000000,93.000000) scale(0.100000,-0.100000)"
fill="#000000" stroke="none">
<path d="M302 673 c-25 -12 -32 -23 -38 -58 -8 -54 0 -234 11 -259 6 -15 5
-17 -5 -11 -8 5 -11 4 -6 -3 7 -11 11 -12 86 -16 25 -1 51 -6 59 -10 10 -6 12
-5 7 2 -4 7 0 22 8 34 9 12 16 39 16 60 0 31 -4 38 -20 38 -16 0 -20 -7 -20
-34 0 -61 -53 -88 -84 -44 -10 14 -16 44 -16 81 l0 59 73 -4 72 -3 -5 67 c-3
37 -10 72 -17 79 -6 6 -10 17 -9 23 2 6 1 8 -1 4 -2 -4 -10 -5 -16 -3 -34 12
-67 12 -95 -2z"/>
<path d="M553 679 c-63 -18 -90 -137 -45 -198 21 -29 21 -29 1 -46 -23 -22
-25 -61 -3 -73 14 -8 14 -10 0 -21 -13 -11 -16 -11 -17 0 -2 24 -17 -34 -18
-69 -1 -29 4 -35 36 -48 42 -18 141 -16 161 4 8 7 17 10 21 7 4 -2 9 15 9 39
3 63 -26 85 -148 110 -8 2 -14 7 -13 12 9 40 13 44 45 44 18 0 42 3 54 6 31 8
52 62 50 125 0 30 3 55 7 56 13 4 37 31 37 42 0 16 -37 14 -52 -3 -10 -11 -16
-11 -33 -1 -31 20 -57 24 -92 14z"/>
</g>
</svg>
